<svg width="34" height="34" viewBox="0 0 34 34" fill="none" xmlns="http://www.w3.org/2000/svg">
<g clip-path="url(#clip0_15_162)">
<path d="M-16.0169 33.8104C-16.0169 33.2582 -15.5693 32.8106 -15.017 32.8105L-0.810687 32.8098L0.189896 32.8105V33.8104L0.189205 48.0168C0.189123 48.569 -0.258453 49.0167 -0.810688 49.0167C-1.36281 49.0165 -1.8105 48.5689 -1.81058 48.0168L-1.81196 36.2252L-16.3394 50.7527C-16.7299 51.1432 -17.3631 51.1432 -17.7536 50.7527C-18.1439 50.3621 -18.1441 49.7289 -17.7536 49.3384L-3.22618 34.811L-15.017 34.8103C-15.5692 34.8102 -16.0169 34.3626 -16.0169 33.8104Z" fill="#18274E"/>
<path d="M9.98306 9.02867C9.98306 8.47643 10.4307 8.02886 10.983 8.02878L25.1893 8.02809L26.1899 8.02878V9.02867L26.1892 23.235C26.1891 23.7872 25.7415 24.2349 25.1893 24.2349C24.6372 24.2348 24.1895 23.7872 24.1894 23.235L24.188 11.4435L9.66058 25.9709C9.27006 26.3614 8.6369 26.3614 8.24637 25.9709C7.85615 25.5804 7.85595 24.9471 8.24637 24.5567L22.7738 10.0293L10.983 10.0286C10.4308 10.0285 9.98315 9.58083 9.98306 9.02867Z" fill="#18274E"/>
</g>
<defs>
<clipPath id="clip0_15_162">
<rect width="33.5635" height="33.5635" fill="white" transform="translate(0.436523 0.218262)"/>
</clipPath>
</defs>
</svg>
